<svg viewBox="0 0 420 1000" xmlns="http://www.w3.org/2000/svg">
  <defs>
    <linearGradient id="ldrIris" x1="0" y1="0" x2="0" y2="1">
      <stop offset="0" stop-color="#3E2417"/>
      <stop offset="0.55" stop-color="#7A4A2C"/>
      <stop offset="1" stop-color="#B0713F"/>
    </linearGradient>
    <linearGradient id="ldrMetal" x1="0" y1="0" x2="1" y2="1">
      <stop offset="0" stop-color="#C9D1DB"/>
      <stop offset="1" stop-color="#8D97A3"/>
    </linearGradient>
    <linearGradient id="ldrCoat" x1="0" y1="0" x2="0" y2="1">
      <stop offset="0" stop-color="#FDFEFF"/>
      <stop offset="1" stop-color="#EFF3F8"/>
    </linearGradient>
  </defs>

  <!-- ground shadow -->
  <ellipse cx="210" cy="936" rx="118" ry="19" fill="rgba(0,0,0,0.16)"/>

  <!-- ===== pants (coral scrub) ===== -->
  <path d="M 152 458 C 147 545 146 630 152 712 C 157 790 162 848 167 890 L 205 890 L 208 585 C 209 573 213 573 214 585 L 217 890 L 255 890 C 260 848 265 790 270 712 C 276 630 275 545 270 458 C 230 450 192 450 152 458 Z" fill="#EF5844"/>
  <path d="M 253 462 C 258 545 259 630 253 712 C 249 790 245 848 241 890 L 255 890 C 260 848 265 790 270 712 C 276 630 275 545 270 458 Z" fill="#C63F30"/>
  <path d="M 205 890 L 208 585 C 209 573 213 573 214 585 L 217 890 L 211 890 Z" fill="#C63F30" opacity="0.55"/>
  <path d="M 178 486 C 174 620 175 760 180 884" fill="none" stroke="#C63F30" stroke-width="3" stroke-linecap="round" opacity="0.45"/>
  <path d="M 244 486 C 248 620 247 760 242 884" fill="none" stroke="#C63F30" stroke-width="3" stroke-linecap="round" opacity="0.45"/>
  <path d="M 167 872 L 205 872 L 205 890 L 167 890 Z" fill="#C63F30" opacity="0.35"/>
  <path d="M 217 872 L 255 872 L 255 890 L 217 890 Z" fill="#C63F30" opacity="0.35"/>

  <!-- ===== shoes ===== -->
  <path d="M 167 880 C 163 900 158 912 152 921 C 147 930 151 938 161 940 L 198 940 C 204 938 207 932 206 924 L 204 880 Z" fill="#F4F6F9"/>
  <path d="M 150 926 C 149 934 154 939 161 940 L 198 940 C 204 938 206 934 206 928 C 188 933 166 932 150 926 Z" fill="#D9DEE6"/>
  <path d="M 167 894 C 178 898 192 899 204 897" fill="none" stroke="#D9DEE6" stroke-width="3" stroke-linecap="round"/>
  <path d="M 255 880 C 259 900 264 912 270 921 C 275 930 271 938 261 940 L 224 940 C 218 938 215 932 216 924 L 218 880 Z" fill="#F4F6F9"/>
  <path d="M 272 926 C 273 934 268 939 261 940 L 224 940 C 218 938 216 934 216 928 C 234 933 256 932 272 926 Z" fill="#D9DEE6"/>
  <path d="M 255 894 C 244 898 230 899 218 897" fill="none" stroke="#D9DEE6" stroke-width="3" stroke-linecap="round"/>

  <!-- ===== scrub top (coral, V-neck) ===== -->
  <path d="M 178 206 C 168 210 160 219 156 231 C 149 282 147 362 149 440 C 150 468 153 486 158 492 L 262 492 C 267 486 270 468 271 440 C 273 362 271 282 264 231 C 260 219 252 210 242 206 L 223 203 C 220 213 200 213 197 203 Z" fill="#EF5844"/>
  <path d="M 241 208 C 250 217 256 234 259 260 C 264 322 265 402 260 492 L 248 492 C 253 402 254 322 250 264 C 247 240 244 222 238 210 Z" fill="#C63F30"/>
  <path d="M 158 480 L 262 480 L 262 492 L 158 492 Z" fill="#C63F30" opacity="0.5"/>
  <!-- neck base skin -->
  <path d="M 188 208 C 194 216 226 216 232 208 C 226 200 220 197 210 197 C 200 197 194 200 188 208 Z" fill="#F2C6A0"/>
  <!-- white undershirt in V -->
  <path d="M 190 207 L 230 207 L 210 254 Z" fill="#F4F6F9"/>
  <path d="M 194 208 C 200 216 220 216 226 208 L 210 218 Z" fill="#D8DEE8"/>
  <path d="M 188 206 L 210 256 L 232 206" fill="none" stroke="#C63F30" stroke-width="6" stroke-linecap="round" stroke-linejoin="round"/>
  <!-- drawstring -->
  <path d="M 204 495 C 206 503 208 510 206 518" fill="none" stroke="#F4F6F9" stroke-width="3" stroke-linecap="round"/>
  <path d="M 216 495 C 214 503 212 510 214 518" fill="none" stroke="#F4F6F9" stroke-width="3" stroke-linecap="round"/>

  <!-- ===== lanyard + ID badge ===== -->
  <path d="M 201 206 C 206 242 216 280 224 318" fill="none" stroke="#26406E" stroke-width="4"/>
  <path d="M 220 204 C 224 242 227 280 229 318" fill="none" stroke="#26406E" stroke-width="4"/>
  <g transform="rotate(-5 226 335)">
    <rect x="212" y="316" width="28" height="38" rx="3" fill="#F7F9FC"/>
    <rect x="212" y="316" width="28" height="8" rx="3" fill="#26406E"/>
    <rect x="216" y="328" width="10" height="12" rx="1" fill="#C9D2DC"/>
    <rect x="229" y="330" width="8" height="3" rx="1.5" fill="#D9DFE7"/>
    <rect x="229" y="336" width="8" height="3" rx="1.5" fill="#D9DFE7"/>
    <rect x="216" y="344" width="21" height="3" rx="1.5" fill="#D9DFE7"/>
  </g>

  <!-- ===== stethoscope ===== -->
  <path d="M 199 198 C 204 193 216 193 221 198" fill="none" stroke="#37424F" stroke-width="7" stroke-linecap="round"/>
  <path d="M 196 199 C 187 214 183 242 184 274 C 185 302 189 332 194 354" fill="none" stroke="#37424F" stroke-width="7" stroke-linecap="round"/>
  <path d="M 224 199 C 233 214 237 240 236 270 C 235 296 231 320 226 338" fill="none" stroke="#37424F" stroke-width="7" stroke-linecap="round"/>
  <path d="M 194 354 L 196 364" fill="none" stroke="#9AA4B0" stroke-width="5" stroke-linecap="round"/>
  <circle cx="197" cy="376" r="13" fill="url(#ldrMetal)"/>
  <circle cx="197" cy="376" r="6" fill="#6E7885"/>
  <path d="M 226 338 C 224 344 222 349 221 353" fill="none" stroke="#9AA4B0" stroke-width="5" stroke-linecap="round"/>
  <circle cx="220" cy="357" r="4.5" fill="#37424F"/>

  <!-- ===== white coat, open ===== -->
  <!-- collar back wedges -->
  <path d="M 184 198 L 199 189 L 203 208 L 189 214 Z" fill="#EDF1F6"/>
  <path d="M 236 198 L 221 189 L 217 208 L 231 214 Z" fill="#EDF1F6"/>
  <!-- left panel -->
  <path d="M 196 202 C 174 207 154 215 143 226 C 135 264 132 342 133 432 C 134 532 137 622 142 692 L 176 694 C 173 600 172 480 174 380 C 175 316 180 252 188 217 Z" fill="url(#ldrCoat)"/>
  <path d="M 143 226 C 150 222 160 218 170 215 C 163 254 159 316 158 380 C 156 480 157 600 160 694 L 142 692 C 137 622 134 532 133 432 C 132 342 135 264 143 226 Z" fill="#FFFFFF" opacity="0.55"/>
  <path d="M 176 694 C 173 600 172 480 174 380 C 175 316 180 252 188 217 L 183 224 C 176 262 172 320 171 382 C 169 482 170 600 172 694 Z" fill="#D8DFE9"/>
  <path d="M 146 528 C 154 534 163 537 171 539 L 170 549 C 161 547 152 543 144 538 Z" fill="#C9D3DF"/>
  <path d="M 151 298 L 170 302 L 168 326 L 149 322 Z" fill="none" stroke="#D8DFE9" stroke-width="2.5" stroke-linejoin="round"/>
  <path d="M 142 692 L 176 694" fill="none" stroke="#D8DFE9" stroke-width="3" stroke-linecap="round"/>
  <!-- right panel -->
  <path d="M 224 202 C 246 207 266 215 277 226 C 285 264 288 342 287 432 C 286 532 283 622 278 692 L 244 694 C 247 600 248 480 246 380 C 245 316 240 252 232 217 Z" fill="url(#ldrCoat)"/>
  <path d="M 244 694 C 247 600 248 480 246 380 C 245 316 240 252 232 217 L 240 226 C 247 264 251 322 252 384 C 254 484 253 602 251 693 Z" fill="#D8DFE9"/>
  <path d="M 277 226 C 285 264 288 342 287 432 C 286 532 283 622 278 692 L 266 691 C 271 620 274 530 274 432 C 274 344 272 268 266 230 Z" fill="#D8DFE9" opacity="0.7"/>
  <path d="M 244 694 L 278 692" fill="none" stroke="#D8DFE9" stroke-width="3" stroke-linecap="round"/>
  <!-- lapels -->
  <path d="M 196 201 L 204 212 C 197 238 191 268 188 302 L 178 294 C 181 260 187 227 196 201 Z" fill="#F5F8FB"/>
  <path d="M 196 201 L 204 212 C 197 238 191 268 188 302 L 184 299 C 187 266 192 233 200 207 Z" fill="#D8DFE9" opacity="0.6"/>
  <path d="M 224 201 L 216 212 C 223 238 229 268 232 302 L 242 294 C 239 260 233 227 224 201 Z" fill="#F5F8FB"/>
  <path d="M 224 201 L 216 212 C 223 238 229 268 232 302 L 236 299 C 233 266 228 233 220 207 Z" fill="#D8DFE9" opacity="0.6"/>

  <!-- ===== left arm (viewer left, hanging) ===== -->
  <path d="M 152 218 C 140 226 133 252 130 292 C 127 344 128 420 132 480 C 134 516 137 544 140 558 L 170 555 C 167 520 165 470 164 420 C 163 350 163 290 168 240 C 164 228 158 220 152 218 Z" fill="url(#ldrCoat)"/>
  <path d="M 164 244 C 160 300 159 400 161 470 C 162 512 165 542 167 554 L 170 555 C 167 520 165 470 164 420 C 163 350 163 290 168 240 Z" fill="#D8DFE9"/>
  <path d="M 150 224 C 158 232 163 242 166 252" fill="none" stroke="#D8DFE9" stroke-width="2.5" stroke-linecap="round"/>
  <path d="M 139 546 L 170 543 L 170 555 L 140 558 Z" fill="#D8DFE9"/>
  <!-- hand -->
  <path d="M 143 557 C 140 575 141 592 146 604 C 150 612 158 614 163 608 C 167 600 168 582 167 556 Z" fill="#F2C6A0"/>
  <path d="M 162 559 C 167 566 169 578 167 590 C 166 598 164 605 161 609 C 165 601 166 584 164 570 Z" fill="#DBA57E"/>
  <path d="M 150 584 L 150 604" fill="none" stroke="#DBA57E" stroke-width="1.6" stroke-linecap="round"/>
  <path d="M 156 585 L 156 607" fill="none" stroke="#DBA57E" stroke-width="1.6" stroke-linecap="round"/>
  <path d="M 145 566 C 141 572 140 580 142 588" fill="none" stroke="#DBA57E" stroke-width="1.6" stroke-linecap="round"/>

  <!-- ===== right arm (hand in coat pocket) ===== -->
  <path d="M 268 218 C 280 226 287 252 290 292 C 293 340 292 400 288 448 C 286 472 281 494 275 509 L 249 497 C 254 470 257 432 258 392 C 259 332 258 280 252 240 C 256 228 262 220 268 218 Z" fill="url(#ldrCoat)"/>
  <path d="M 281 258 C 285 300 285 360 282 410 C 280 448 277 480 272 506 L 275 509 C 281 494 286 472 288 448 C 292 400 293 340 290 292 C 288 268 285 246 281 232 Z" fill="#D8DFE9"/>
  <path d="M 270 224 C 262 232 257 242 254 252" fill="none" stroke="#D8DFE9" stroke-width="2.5" stroke-linecap="round"/>
  <path d="M 250 495 L 277 507 L 273 519 L 246 506 Z" fill="#D8DFE9"/>
  <path d="M 243 512 C 255 519 268 524 279 526 L 278 536 C 266 534 253 529 241 522 Z" fill="#C9D3DF"/>

  <!-- ===== head group ===== -->
  <g transform="translate(210 204) scale(0.88) translate(-210 -200)">
    <!-- back hair (spiky crown, trimmed sides) -->
    <path d="M 158 62 C 164 48 176 36 190 32 L 186 24 L 198 30 L 206 20 L 214 30 L 226 22 L 230 32 C 246 36 258 48 264 62 C 269 74 271 86 270 98 C 269 116 266 130 262 140 L 256 118 L 249 146 L 243 120 L 238 138 L 234 116 L 234 152 L 186 152 L 186 116 L 182 138 L 177 120 L 171 146 L 164 118 L 158 140 C 154 130 151 116 150 98 C 149 86 151 74 158 62 Z" fill="#2A2F3B"/>
    <path d="M 248 56 C 260 72 266 92 264 116 C 263 128 260 136 256 144 L 251 124 L 244 140 L 240 122 C 244 104 244 78 234 54 Z" fill="#1B1F29"/>
    <!-- ears -->
    <path d="M 171 104 C 164 104 162 113 165 122 C 167 129 172 131 176 128 L 176 106 Z" fill="#F2C6A0"/>
    <path d="M 168 111 C 167 115 168 120 171 124" fill="none" stroke="#DBA57E" stroke-width="1.6" stroke-linecap="round"/>
    <path d="M 249 104 C 256 104 258 113 255 122 C 253 129 248 131 244 128 L 244 106 Z" fill="#F2C6A0"/>
    <path d="M 252 111 C 253 115 252 120 249 124" fill="none" stroke="#DBA57E" stroke-width="1.6" stroke-linecap="round"/>
    <!-- neck -->
    <path d="M 195 144 L 195 198 C 195 205 225 205 225 198 L 225 144 Z" fill="#F2C6A0"/>
    <path d="M 195 144 L 225 144 L 225 164 C 215 173 204 173 195 162 Z" fill="#DBA57E"/>
    <!-- face -->
    <path d="M 210 58 C 184 58 172 80 172 108 C 172 128 178 142 192 152 C 199 158 205 161 210 161 C 215 161 221 158 228 152 C 242 142 248 128 248 108 C 248 80 236 58 210 58 Z" fill="#F2C6A0"/>
    <path d="M 240 86 C 247 104 248 126 241 142 C 237 150 230 156 224 159 C 233 149 240 133 240 112 C 240 102 240 94 237 86 Z" fill="#DBA57E"/>
    <!-- brows -->
    <path d="M 179 96 C 186 90 196 88 203 91 L 202 96 C 195 93 187 94 181 100 Z" fill="#232833"/>
    <path d="M 241 96 C 234 90 224 88 217 91 L 218 96 C 225 93 233 94 239 100 Z" fill="#232833"/>
    <!-- eyes -->
    <ellipse cx="193" cy="112.5" rx="7" ry="8.5" fill="url(#ldrIris)"/>
    <ellipse cx="193" cy="113.5" rx="2.8" ry="3.6" fill="#1C1210"/>
    <circle cx="190" cy="108.5" r="2.6" fill="#FFFFFF"/>
    <circle cx="196.5" cy="117.5" r="1.4" fill="#FFD9B8" opacity="0.85"/>
    <path d="M 181 109 C 186 102 196 100 203 104 L 204 111 C 197 106 188 107 183 113 Z" fill="#262024"/>
    <path d="M 190 123.5 C 194 125.5 199 125 202 123" fill="none" stroke="#E0B48C" stroke-width="1.6" stroke-linecap="round"/>
    <ellipse cx="227" cy="112.5" rx="7" ry="8.5" fill="url(#ldrIris)"/>
    <ellipse cx="227" cy="113.5" rx="2.8" ry="3.6" fill="#1C1210"/>
    <circle cx="224" cy="108.5" r="2.6" fill="#FFFFFF"/>
    <circle cx="230.5" cy="117.5" r="1.4" fill="#FFD9B8" opacity="0.85"/>
    <path d="M 239 109 C 234 102 224 100 217 104 L 216 111 C 223 106 232 107 237 113 Z" fill="#262024"/>
    <path d="M 218 123 C 221 125 226 125.5 230 123.5" fill="none" stroke="#E0B48C" stroke-width="1.6" stroke-linecap="round"/>
    <!-- nose + mouth -->
    <path d="M 212 122 C 214 127 214 131 211 134" fill="none" stroke="#D9A87F" stroke-width="2" stroke-linecap="round"/>
    <path d="M 203 143 C 209 147.5 217 147 222 142.5" fill="none" stroke="#B7684B" stroke-width="2.4" stroke-linecap="round"/>
    <path d="M 208 151 C 211 152.5 215 152.5 218 151" fill="none" stroke="#E6B896" stroke-width="1.5" stroke-linecap="round" opacity="0.8"/>
    <!-- sideburns -->
    <path d="M 174 100 L 180 128 L 185 103 Z" fill="#2A2F3B"/>
    <path d="M 246 100 L 240 128 L 235 103 Z" fill="#2A2F3B"/>
    <!-- bangs -->
    <path d="M 210 32 C 180 32 160 48 152 76 C 150 90 152 102 158 112 L 165 90 L 170 118 L 177 92 L 182 108 L 190 88 L 197 104 L 204 92 L 211 120 L 219 92 L 226 102 L 234 90 L 241 110 L 247 86 C 253 96 256 106 257 114 C 264 102 266 88 263 74 C 256 48 238 32 210 32 Z" fill="#2A2F3B"/>
    <!-- forehead shadow under bangs -->
    <path d="M 170 118 L 174 100 L 179 114 Z" fill="#DBA57E"/>
    <path d="M 211 120 L 214 102 L 218 114 Z" fill="#DBA57E"/>
    <path d="M 241 110 L 244 96 L 248 106 Z" fill="#DBA57E"/>
    <!-- strand separations -->
    <path d="M 176 46 C 172 66 172 90 176 108 L 181 88 C 178 74 177 60 179 48 Z" fill="#1B1F29" opacity="0.85"/>
    <path d="M 196 40 C 194 62 195 84 199 100 L 204 86 C 200 70 199 54 201 42 Z" fill="#1B1F29" opacity="0.85"/>
    <path d="M 226 40 C 228 60 228 80 225 98 L 221 82 C 224 68 224 52 222 42 Z" fill="#1B1F29" opacity="0.85"/>
    <path d="M 244 48 C 248 62 249 78 246 94 L 242 82 C 244 70 244 58 242 50 Z" fill="#1B1F29" opacity="0.85"/>
    <!-- hair highlight band -->
    <path d="M 168 66 L 176 52 L 181 62 L 188 48 L 194 60 L 202 46 L 208 58 L 216 46 L 222 58 L 230 48 L 236 60 L 244 52 L 250 66 L 243 64 L 238 70 L 230 60 L 224 70 L 214 58 L 208 68 L 198 58 L 192 68 L 184 60 L 178 70 L 170 72 Z" fill="#5A6580" opacity="0.95"/>
  </g>
</svg>
