<svg viewBox="0 0 420 1000" xmlns="http://www.w3.org/2000/svg">
  <!-- Airway : 26y fresh female airway nurse, royal-blue scrubs, high black ponytail, carrying BVM -->
  <defs>
    <linearGradient id="aw-irisG" x1="0" y1="0" x2="0" y2="1">
      <stop offset="0" stop-color="#143A78"/>
      <stop offset="0.55" stop-color="#2E6FD0"/>
      <stop offset="1" stop-color="#8AC6FF"/>
    </linearGradient>
    <linearGradient id="aw-bagG" x1="0" y1="0" x2="1" y2="0">
      <stop offset="0" stop-color="#3E6EC4"/>
      <stop offset="0.5" stop-color="#27509A"/>
      <stop offset="1" stop-color="#1B3568"/>
    </linearGradient>
  </defs>

  <!-- ground shadow -->
  <ellipse cx="210" cy="946" rx="120" ry="17" fill="rgba(0,0,0,0.16)"/>

  <!-- ===== ponytail (behind everything) ===== -->
  <path d="M238 42 C272 30 306 46 318 84 C328 120 326 160 314 196 C310 208 306 220 304 232
           C312 226 320 222 330 222 C322 238 312 252 300 260 C304 268 310 274 318 276
           C304 282 290 280 282 270 C278 278 272 286 262 290 C264 278 266 266 270 254
           C264 258 256 260 250 258 C258 246 266 234 272 220 C280 196 284 168 280 140
           C276 112 264 88 244 74 C240 64 238 52 238 42 Z" fill="#262B36"/>
  <path d="M244 74 C264 88 276 112 280 140 C284 168 280 196 272 220 C266 234 258 246 250 258
           C256 244 262 226 264 200 C268 160 262 116 244 92 Z" fill="#151923"/>
  <path d="M284 100 L296 106 L292 122 L302 118 L298 140 L288 134 L291 152 L280 144
           C284 130 285 114 284 100 Z" fill="#4A5468" opacity="0.95"/>

  <!-- ===== back hair mass ===== -->
  <path d="M158 120 C150 78 170 36 210 32 C250 36 270 78 262 120
           C264 152 260 184 250 205 C246 190 244 172 244 158
           L176 158 C176 174 174 192 170 205 C160 184 156 152 158 120 Z" fill="#262B36"/>

  <!-- hair tie + flick strands -->
  <path d="M244 34 C250 24 260 20 268 22 C262 28 256 36 252 42 Z" fill="#262B36"/>
  <path d="M232 40 C240 36 248 38 252 44 C250 52 242 56 234 54 C230 50 230 44 232 40 Z" fill="#2B7DE9"/>
  <path d="M242 38 C248 38 251 41 252 44 C250 52 242 56 234 54 C240 52 244 46 242 38 Z" fill="#1E5FB8"/>

  <!-- ===== neck ===== -->
  <path d="M197 148 L197 182 C197 190 223 190 223 182 L223 148 C219 156 201 156 197 148 Z" fill="#F2C6A0"/>
  <path d="M197 148 L197 168 C205 174 215 174 223 168 L223 148 C219 156 201 156 197 148 Z" fill="#DBA57E"/>

  <!-- ===== pants ===== -->
  <path d="M164 428 C157 470 159 520 166 566 C171 610 172 660 172 710 C172 772 172 840 174 896
           L206 896 C207 830 205 762 203 706 C202 664 203 620 206 574 C208 550 209 528 210 502
           C211 528 212 550 214 574 C217 620 218 664 217 706 C215 762 213 830 214 896
           L246 896 C248 840 248 772 248 710 C248 660 249 610 254 566 C261 520 263 470 256 428
           C226 440 194 440 164 428 Z" fill="#2B7DE9"/>
  <path d="M256 428 C263 470 261 520 254 566 C249 610 248 660 248 710 C248 772 248 840 246 896
           L236 896 C240 830 242 760 241 706 C240 656 243 606 247 564 C252 520 253 472 248 430 Z"
        fill="#1E5FB8" opacity="0.9"/>
  <path d="M210 502 C209 528 208 550 206 574 C203 620 202 664 203 706 C205 762 207 830 206 896
           L198 896 C199 830 198 764 197 708 C196 662 198 618 202 572 C205 546 208 524 210 502 Z"
        fill="#1E5FB8" opacity="0.6"/>
  <path d="M194 440 C200 470 205 488 210 498 C215 488 220 470 226 440 C214 446 206 446 194 440 Z"
        fill="#1E5FB8" opacity="0.7"/>
  <path d="M174 640 C182 646 192 648 200 646" stroke="#1E5FB8" stroke-width="2.5" fill="none" opacity="0.6" stroke-linecap="round"/>
  <path d="M220 646 C230 648 240 646 248 640" stroke="#1E5FB8" stroke-width="2.5" fill="none" opacity="0.6" stroke-linecap="round"/>

  <!-- ===== shoes ===== -->
  <path d="M174 896 C160 900 148 910 143 922 C137 934 139 944 149 947 C166 951 196 951 204 946
           C208 942 208 930 207 918 L206 896 Z" fill="#FFFFFF"/>
  <path d="M143 934 C140 942 142 946 149 947 C166 951 196 951 204 946 C207 943 208 938 207 933
           C186 942 158 941 143 934 Z" fill="#D5DCE4"/>
  <path d="M178 902 C169 906 160 913 155 921" stroke="#C6CFDA" stroke-width="2.5" fill="none" stroke-linecap="round"/>
  <path d="M183 910 C174 914 166 920 161 928" stroke="#C6CFDA" stroke-width="2.5" fill="none" stroke-linecap="round"/>
  <path d="M214 896 L213 918 C212 930 212 942 216 946 C224 951 254 951 271 947 C281 944 283 934 277 922
           C271 910 259 900 246 896 Z" fill="#FFFFFF"/>
  <path d="M277 922 C283 934 281 944 271 947 C254 951 224 951 216 946 C213 943 212 938 213 933
           C234 942 262 941 277 934 Z" fill="#D5DCE4"/>
  <path d="M242 902 C251 906 260 913 265 921" stroke="#C6CFDA" stroke-width="2.5" fill="none" stroke-linecap="round"/>
  <path d="M237 910 C246 914 254 920 259 928" stroke="#C6CFDA" stroke-width="2.5" fill="none" stroke-linecap="round"/>

  <!-- ===== scrub top ===== -->
  <path d="M148 210 C147 246 152 272 158 288 C164 312 160 336 156 356 C152 388 158 416 166 440
           C190 448 230 448 254 440 C262 416 268 388 264 356 C260 336 256 312 262 288
           C268 272 273 246 272 210 C250 192 226 184 210 184 C194 184 170 192 148 210 Z" fill="#2B7DE9"/>
  <path d="M272 210 C273 246 268 272 262 288 C256 312 260 336 264 356 C268 388 262 416 254 440
           C244 443 236 445 228 446 C240 420 248 392 246 356 C244 330 248 300 252 282
           C257 258 259 232 256 206 C262 207 268 208 272 210 Z" fill="#1E5FB8"/>
  <!-- bust + waist definition -->
  <path d="M172 262 C180 274 194 277 204 271" stroke="#1E5FB8" stroke-width="2.5" fill="none" opacity="0.55" stroke-linecap="round"/>
  <path d="M216 271 C226 277 240 274 248 262" stroke="#1E5FB8" stroke-width="2.5" fill="none" opacity="0.55" stroke-linecap="round"/>
  <path d="M168 332 C180 338 194 340 206 338" stroke="#1E5FB8" stroke-width="2" fill="none" opacity="0.5" stroke-linecap="round"/>
  <path d="M226 410 C238 406 248 400 254 392" stroke="#1E5FB8" stroke-width="2" fill="none" opacity="0.5" stroke-linecap="round"/>
  <!-- hem shade -->
  <path d="M166 432 C190 442 230 442 254 432 C230 448 190 448 166 432 Z" fill="#1E5FB8" opacity="0.7"/>
  <!-- chest pocket -->
  <path d="M174 298 L200 300 L199 320 L174 318 Z" fill="none" stroke="#1E5FB8" stroke-width="2" opacity="0.8"/>
  <!-- white undershirt at V-neck -->
  <path d="M186 196 L210 244 L234 196 C226 190 216 187 210 187 C204 187 194 190 186 196 Z" fill="#FFFFFF"/>
  <path d="M210 189 L210 244 L234 196 C227 191 218 188 210 189 Z" fill="#E3E9F1"/>
  <!-- V-neck trim -->
  <path d="M182 194 L208 248 L215 248 L190 189 C187 190 184 192 182 194 Z" fill="#1E5FB8"/>
  <path d="M238 194 L212 248 L205 248 L230 189 C233 190 236 192 238 194 Z" fill="#1E5FB8"/>

  <!-- ===== right arm (viewer right, hand on hip) ===== -->
  <path d="M272 210 C284 218 292 234 296 254 C298 262 299 270 300 278 L266 288
           C263 270 261 242 262 222 C265 216 268 212 272 210 Z" fill="#2B7DE9"/>
  <path d="M288 240 C292 252 296 266 298 276 L288 279 C286 266 284 252 280 240 Z" fill="#1E5FB8" opacity="0.9"/>
  <path d="M300 278 L266 288 L269 301 L302 291 Z" fill="#FFFFFF"/>
  <path d="M300 278 L302 291 L285 296 L283 283 Z" fill="#E3E9F1" opacity="0.7"/>
  <path d="M302 291 C309 305 313 320 314 332 C314 344 310 352 303 357 C296 369 289 380 285 392
           L274 380 C280 366 286 352 291 340 C288 326 276 310 269 301 Z" fill="#F2C6A0"/>
  <path d="M307 316 C311 324 314 330 314 334 C314 344 310 352 303 357 C297 367 291 377 286 388
           L281 384 C288 372 295 361 301 351 C306 343 307 330 307 316 Z" fill="#DBA57E" opacity="0.9"/>
  <!-- hand on hip -->
  <path d="M276 376 C266 380 257 386 252 393 C257 400 266 405 276 405 C285 404 290 398 289 390
           C288 382 283 376 276 376 Z" fill="#F2C6A0"/>
  <path d="M262 390 C267 394 273 396 279 396" stroke="#DBA57E" stroke-width="1.8" fill="none" stroke-linecap="round"/>
  <path d="M260 396 C265 400 271 401 277 401" stroke="#DBA57E" stroke-width="1.8" fill="none" stroke-linecap="round"/>

  <!-- ===== left arm (viewer left, carries BVM) ===== -->
  <path d="M148 208 C136 218 128 236 125 258 C124 266 123 272 122 280 L156 288
           C158 272 160 244 158 222 C155 216 152 211 148 208 Z" fill="#2B7DE9"/>
  <path d="M150 214 C156 232 157 262 156 288 L146 286 C148 262 148 236 144 218 Z" fill="#1E5FB8" opacity="0.85"/>
  <path d="M122 280 L156 288 L154 301 L120 293 Z" fill="#FFFFFF"/>
  <path d="M156 288 L154 301 L137 297 L139 284 Z" fill="#E3E9F1" opacity="0.7"/>
  <path d="M121 293 C118 324 115 360 113 396 C112 418 112 436 112 452 L130 454
           C131 428 134 396 138 360 C141 336 146 314 153 300 Z" fill="#F2C6A0"/>
  <path d="M153 300 C147 314 141 336 138 360 C134 396 131 428 130 454 L123 453
           C124 424 127 392 130 358 C133 330 138 310 145 300 Z" fill="#DBA57E" opacity="0.9"/>

  <!-- ===== BVM (bag-valve-mask) ===== -->
  <!-- valve neck under hand -->
  <rect x="112" y="482" width="22" height="18" rx="4" fill="#C9D3DE"/>
  <rect x="124" y="482" width="10" height="18" rx="4" fill="#A9B4C1"/>
  <!-- bag -->
  <ellipse cx="122" cy="552" rx="36" ry="58" fill="url(#aw-bagG)" transform="rotate(4 122 552)"/>
  <ellipse cx="106" cy="530" rx="9" ry="24" fill="#4F7DD4" opacity="0.85" transform="rotate(4 106 530)"/>
  <path d="M138 505 C152 522 156 560 146 590 C142 600 136 606 130 609 C144 592 148 552 138 516 Z" fill="#1B3568" opacity="0.9"/>
  <path d="M96 540 C94 556 96 574 102 588" stroke="#1B3568" stroke-width="2" fill="none" opacity="0.45" stroke-linecap="round"/>
  <path d="M108 596 C118 602 132 602 140 596" stroke="#1B3568" stroke-width="2" fill="none" opacity="0.45" stroke-linecap="round"/>
  <!-- connector -->
  <rect x="122" y="602" width="13" height="16" rx="3" fill="#C9D3DE" transform="rotate(18 128 610)"/>
  <!-- transparent mask shell + cushion -->
  <path d="M128 614 C120 628 124 644 136 656 C146 664 158 668 166 666 C170 656 166 642 156 632
           C148 622 138 614 128 614 Z" fill="#BFDCF2" opacity="0.5" stroke="#8FB8D8" stroke-width="2"/>
  <ellipse cx="148" cy="662" rx="27" ry="15" fill="#D6EAF8" opacity="0.45" transform="rotate(-28 148 662)"/>
  <ellipse cx="148" cy="662" rx="27" ry="15" fill="none" stroke="#EAF5FD" stroke-width="5" opacity="0.9" transform="rotate(-28 148 662)"/>
  <path d="M132 622 C127 632 128 642 134 650" stroke="#FFFFFF" stroke-width="2.5" fill="none" opacity="0.8" stroke-linecap="round"/>

  <!-- left hand gripping valve -->
  <path d="M112 450 C104 456 101 468 106 478 C111 486 124 489 133 484 C139 480 141 470 138 458
           C136 452 133 450 130 452 Z" fill="#F2C6A0"/>
  <path d="M133 484 C139 480 141 470 138 458 C136 452 133 450 130 452 C134 462 135 474 129 482 Z" fill="#DBA57E" opacity="0.9"/>
  <path d="M116 458 C115 466 115 472 117 478" stroke="#DBA57E" stroke-width="1.8" fill="none" stroke-linecap="round"/>
  <path d="M124 460 C123 468 123 474 125 480" stroke="#DBA57E" stroke-width="1.8" fill="none" stroke-linecap="round"/>
  <path d="M131 460 C130 468 130 473 131 478" stroke="#DBA57E" stroke-width="1.8" fill="none" stroke-linecap="round"/>
  <path d="M108 460 C104 466 105 474 110 478 C113 480 116 478 115 473 C113 468 111 464 108 460 Z" fill="#F2C6A0"/>

  <!-- ===== lanyard + ID badge ===== -->
  <path d="M194 200 C200 224 205 248 208 268" stroke="#1B3E77" stroke-width="5" fill="none" stroke-linecap="round"/>
  <path d="M226 200 C221 224 217 248 214 268" stroke="#1B3E77" stroke-width="5" fill="none" stroke-linecap="round"/>
  <g transform="rotate(3 211 292)">
    <rect x="207" y="262" width="8" height="10" rx="2" fill="#9AA6B6"/>
    <rect x="195" y="270" width="33" height="45" rx="3" fill="#FFFFFF" stroke="#D7DEE8" stroke-width="1.5"/>
    <rect x="195" y="270" width="33" height="10" rx="3" fill="#2B7DE9"/>
    <rect x="199" y="285" width="12" height="14" rx="1.5" fill="#C8D4E2"/>
    <rect x="214" y="287" width="10" height="3" rx="1.5" fill="#B9C4D2"/>
    <rect x="214" y="293" width="8" height="3" rx="1.5" fill="#B9C4D2"/>
    <rect x="199" y="304" width="24" height="3" rx="1.5" fill="#B9C4D2"/>
  </g>

  <!-- ===== face ===== -->
  <path d="M166 94 C164 124 175 146 197 157 C204 161 216 161 223 157 C245 146 256 124 254 94
           C252 64 234 46 210 46 C186 46 168 64 166 94 Z" fill="#F2C6A0"/>
  <path d="M253 92 C255 122 245 145 223 156 C233 147 242 130 243 98 C244 76 236 58 224 50
           C240 57 251 72 253 92 Z" fill="#DBA57E" opacity="0.6"/>

  <!-- eyebrows -->
  <path d="M177 98 C183 93 193 92 200 95" stroke="#2A2E38" stroke-width="3.2" fill="none" stroke-linecap="round"/>
  <path d="M220 95 C227 92 237 93 243 98" stroke="#2A2E38" stroke-width="3.2" fill="none" stroke-linecap="round"/>

  <!-- left eye -->
  <path d="M176 112 C178 104 184 100 190 101 C196 102 200 108 200 116 C199 122 194 126 188 126
           C181 125 176 119 176 112 Z" fill="#FFFFFF"/>
  <ellipse cx="189" cy="114" rx="9.5" ry="11.5" fill="url(#aw-irisG)"/>
  <ellipse cx="189" cy="121" rx="5" ry="2.5" fill="#8CC9F8" opacity="0.75"/>
  <ellipse cx="189" cy="115" rx="4" ry="5.5" fill="#16294F"/>
  <circle cx="184" cy="107" r="3.4" fill="#FFFFFF"/>
  <circle cx="194" cy="119" r="1.6" fill="#FFFFFF" opacity="0.85"/>
  <path d="M175 110 C178 101 186 97 193 99 C198 100 202 105 203 111" stroke="#23202B" stroke-width="4.5" fill="none" stroke-linecap="round"/>
  <path d="M177 108 L171 103 L176 113 Z" fill="#23202B"/>
  <path d="M179 125 C184 129 194 129 199 124" stroke="#B98A64" stroke-width="2" fill="none" opacity="0.8" stroke-linecap="round"/>
  <path d="M179 98 C184 94 193 94 198 97" stroke="#D9A67F" stroke-width="2" fill="none" opacity="0.7" stroke-linecap="round"/>

  <!-- right eye -->
  <path d="M220 116 C220 108 224 102 230 101 C236 100 242 104 244 112 C244 119 239 125 232 126
           C226 126 221 122 220 116 Z" fill="#FFFFFF"/>
  <ellipse cx="231" cy="114" rx="9.5" ry="11.5" fill="url(#aw-irisG)"/>
  <ellipse cx="231" cy="121" rx="5" ry="2.5" fill="#8CC9F8" opacity="0.75"/>
  <ellipse cx="231" cy="115" rx="4" ry="5.5" fill="#16294F"/>
  <circle cx="226" cy="107" r="3.4" fill="#FFFFFF"/>
  <circle cx="236" cy="119" r="1.6" fill="#FFFFFF" opacity="0.85"/>
  <path d="M217 111 C218 103 224 98 231 98 C238 98 243 103 245 110" stroke="#23202B" stroke-width="4.5" fill="none" stroke-linecap="round"/>
  <path d="M243 108 L249 103 L244 113 Z" fill="#23202B"/>
  <path d="M221 124 C226 129 236 129 241 125" stroke="#B98A64" stroke-width="2" fill="none" opacity="0.8" stroke-linecap="round"/>
  <path d="M222 97 C227 94 236 94 241 98" stroke="#D9A67F" stroke-width="2" fill="none" opacity="0.7" stroke-linecap="round"/>

  <!-- nose + mouth + blush -->
  <path d="M209 127 C211 129 212 131 211 133 C209 134 207 133 207 131 Z" fill="#DBA57E"/>
  <path d="M199 140 C205 147 215 147 221 140 C218 152 202 152 199 140 Z" fill="#B04A46"/>
  <path d="M201 141 C207 145 213 145 219 141 C213 143.5 207 143.5 201 141 Z" fill="#FFFFFF" opacity="0.9"/>
  <ellipse cx="178" cy="131" rx="8" ry="3.5" fill="#F29B84" opacity="0.4"/>
  <ellipse cx="242" cy="131" rx="8" ry="3.5" fill="#F29B84" opacity="0.4"/>

  <!-- ===== bangs + front hair ===== -->
  <!-- dark under-strands -->
  <path d="M236 88 C234 100 232 110 229 118 C228 108 227 98 226 92 Z" fill="#151923"/>
  <path d="M199 102 C198 112 196 120 194 124 C193 114 192 104 191 98 Z" fill="#151923"/>
  <path d="M175 100 C174 110 172 116 170 120 C169 111 168 102 167 96 Z" fill="#151923"/>
  <!-- main bangs -->
  <path d="M161 108 C157 72 176 42 210 38 C244 42 263 72 259 108
           L252 96 C250 102 248 108 244 112 C242 104 240 96 236 90
           C234 100 230 110 224 116 C222 106 218 96 213 90
           C210 100 205 110 199 115 C197 105 193 95 188 90
           C186 98 182 106 176 111 C174 103 170 96 166 92
           C164 98 163 103 161 108 Z" fill="#262B36"/>
  <!-- sheen band -->
  <path d="M176 70 L186 60 L192 70 L202 58 L208 70 L218 58 L224 70 L234 60 L240 72
           L232 76 L226 68 L218 78 L210 68 L202 78 L194 68 L186 78 L180 74 Z" fill="#4A5468" opacity="0.9"/>
  <!-- ahoge -->
  <path d="M208 40 C206 28 210 16 220 12 C214 20 213 30 215 40 Z" fill="#262B36"/>
  <!-- side locks -->
  <path d="M164 92 C155 118 152 152 156 186 C158 200 162 210 168 218 C172 206 174 190 173 174
           C171 146 169 116 170 98 Z" fill="#262B36"/>
  <path d="M256 92 C265 118 268 152 264 186 C262 200 258 210 252 218 C248 206 246 190 247 174
           C249 146 251 116 250 98 Z" fill="#262B36"/>
  <path d="M256 92 C265 118 268 152 264 186 C262 198 259 207 254 214 C257 200 259 178 258 158
           C257 134 256 110 253 96 Z" fill="#151923" opacity="0.8"/>
</svg>
