<svg viewBox="0 0 420 1000" xmlns="http://www.w3.org/2000/svg">
  <!-- Circulation: 28y sunny athletic male nurse (compression/defib), teal scrubs -->
  <defs>
    <linearGradient id="cirHairG" x1="0" y1="0" x2="0" y2="1">
      <stop offset="0" stop-color="#9A6B3E"/>
      <stop offset="1" stop-color="#7C4E2A"/>
    </linearGradient>
    <linearGradient id="cirIrisG" x1="0" y1="0" x2="0" y2="1">
      <stop offset="0" stop-color="#4E2A0E"/>
      <stop offset="0.55" stop-color="#9C5D1E"/>
      <stop offset="1" stop-color="#D18F3B"/>
    </linearGradient>
    <linearGradient id="cirTealG" x1="0" y1="0" x2="0" y2="1">
      <stop offset="0" stop-color="#17C2AF"/>
      <stop offset="1" stop-color="#12A896"/>
    </linearGradient>
  </defs>

  <!-- ground shadow -->
  <ellipse cx="210" cy="946" rx="140" ry="22" fill="rgba(0,0,0,0.16)"/>

  <!-- ================= PANTS / LEGS ================= -->
  <path d="M150,440 L270,440 C274,478 275,510 272,545 C271,600 269,700 266,872
           L214,872 C213,760 212,660 210,565 C208,660 207,760 206,872
           L154,872 C151,700 149,600 148,545 C145,510 146,478 150,440 Z" fill="#14B8A6"/>
  <!-- shadow cast by top hem -->
  <path d="M150,440 L270,440 C271,452 271,458 270,463 L150,463 C149,455 149,447 150,440 Z" fill="#0E8A7C"/>
  <!-- inseam shadows -->
  <path d="M210,568 C208,660 207,766 206,872 L197,872 C200,766 203,660 204,592 Z" fill="#0E8A7C"/>
  <path d="M210,568 C212,660 213,766 214,872 L223,872 C220,766 217,660 216,592 Z" fill="#0E8A7C"/>
  <!-- right outer leg shadow band -->
  <path d="M272,532 C271,640 268,760 266,870 L256,870 C260,760 263,640 263,534 Z" fill="#0E8A7C"/>
  <path d="M148,545 C149,640 151,760 154,870 L160,870 C157,760 155,650 155,560 Z" fill="#0E8A7C" opacity="0.45"/>
  <!-- crotch folds -->
  <path d="M196,560 C200,575 204,586 208,602" stroke="#0E8A7C" stroke-width="2.5" fill="none" stroke-linecap="round"/>
  <path d="M224,560 C220,575 216,586 212,602" stroke="#0E8A7C" stroke-width="2.5" fill="none" stroke-linecap="round"/>
  <!-- knee creases -->
  <path d="M166,692 C176,698 190,698 200,692" stroke="#0E8A7C" stroke-width="2" fill="none" opacity="0.7" stroke-linecap="round"/>
  <path d="M220,692 C230,698 244,698 254,692" stroke="#0E8A7C" stroke-width="2" fill="none" opacity="0.7" stroke-linecap="round"/>
  <!-- cuff hem lines -->
  <path d="M154,866 L206,866" stroke="#0E8A7C" stroke-width="3" fill="none"/>
  <path d="M214,866 L266,866" stroke="#0E8A7C" stroke-width="3" fill="none"/>

  <!-- ================= SHOES ================= -->
  <!-- left shoe -->
  <path d="M152,872 C149,896 142,908 131,919 C123,927 124,940 138,943 L202,943 C210,943 212,936 211,925 L207,872 Z" fill="#FBFCFD"/>
  <path d="M131,919 C123,927 124,940 138,943 L168,943 C156,940 146,934 140,926 C136,922 133,920 131,919 Z" fill="#DDE3E9"/>
  <path d="M150,900 C158,912 172,920 190,922 L190,930 C170,928 154,919 145,908 Z" fill="#14B8A6" opacity="0.9"/>
  <path d="M168,884 L198,887 M165,896 L196,899" stroke="#D5DBE1" stroke-width="3" fill="none" stroke-linecap="round"/>
  <path d="M128,936 C124,944 128,950 140,951 L203,951 C211,951 213,945 211,939 L211,935 C210,941 206,943 200,943 L138,943 C132,943 129,940 128,936 Z" fill="#D5DBE1"/>
  <!-- right shoe -->
  <path d="M268,872 C271,896 278,908 289,919 C297,927 296,940 282,943 L218,943 C210,943 208,936 209,925 L213,872 Z" fill="#FBFCFD"/>
  <path d="M289,919 C297,927 296,940 282,943 L252,943 C264,940 274,934 280,926 C284,922 287,920 289,919 Z" fill="#DDE3E9"/>
  <path d="M270,900 C262,912 248,920 230,922 L230,930 C250,928 266,919 275,908 Z" fill="#14B8A6" opacity="0.9"/>
  <path d="M252,884 L222,887 M255,896 L224,899" stroke="#D5DBE1" stroke-width="3" fill="none" stroke-linecap="round"/>
  <path d="M292,936 C296,944 292,950 280,951 L217,951 C209,951 207,945 209,939 L209,935 C210,941 214,943 220,943 L282,943 C288,943 291,940 292,936 Z" fill="#D5DBE1"/>

  <!-- ================= NECK (under head & collar) ================= -->
  <path d="M196,148 L196,210 C203,216 217,216 224,210 L224,148 Z" fill="#F2C6A0"/>
  <path d="M196,148 L224,148 L224,174 C217,182 203,182 196,174 Z" fill="#DBA57E"/>

  <!-- chest skin seen in V-neck -->
  <path d="M188,196 L232,196 L228,244 C218,250 202,250 192,244 Z" fill="#F2C6A0"/>
  <path d="M200,220 C205,224 210,224 213,221" stroke="#DBA57E" stroke-width="2" fill="none" stroke-linecap="round"/>
  <path d="M220,220 C215,224 210,224 207,221" stroke="#DBA57E" stroke-width="2" fill="none" stroke-linecap="round"/>
  <!-- white tee inside V -->
  <path d="M186,226 C196,240 224,240 234,226 L231,302 L189,302 Z" fill="#FFFFFF"/>
  <path d="M187,230 C197,243 223,243 233,230 L232,239 C222,250 198,250 188,239 Z" fill="#E5EAF0"/>

  <!-- ================= SCRUB TOP ================= -->
  <path d="M210,289 L192,198 L148,212 C136,216 128,220 126,224 L139,308
           C149,352 154,384 157,410 C153,434 150,447 151,457
           L269,457 C270,447 267,434 263,410 C266,384 271,352 281,308
           L294,224 C292,220 284,216 272,212 L228,198 Z" fill="url(#cirTealG)"/>
  <!-- right-side cel shadow -->
  <path d="M281,308 C271,352 266,384 263,410 C267,434 270,447 269,457 L254,457
           C256,440 254,424 251,410 C256,382 262,350 268,310 Z" fill="#0E8A7C"/>
  <!-- left armpit shadow -->
  <path d="M139,306 L152,310 C150,323 149,335 150,347 C144,334 140,319 139,306 Z" fill="#0E8A7C" opacity="0.85"/>
  <!-- chest / hem wrinkles -->
  <path d="M168,332 C178,342 196,344 206,338" stroke="#0E8A7C" stroke-width="2.5" fill="none" opacity="0.75" stroke-linecap="round"/>
  <path d="M252,332 C242,342 224,344 214,338" stroke="#0E8A7C" stroke-width="2.5" fill="none" opacity="0.75" stroke-linecap="round"/>
  <path d="M165,430 C172,438 181,442 191,444" stroke="#0E8A7C" stroke-width="2.5" fill="none" opacity="0.7" stroke-linecap="round"/>
  <path d="M255,430 C248,438 239,442 229,444" stroke="#0E8A7C" stroke-width="2.5" fill="none" opacity="0.7" stroke-linecap="round"/>
  <!-- side slits -->
  <path d="M159,442 L159,457 M261,442 L261,457" stroke="#0E8A7C" stroke-width="2.5" fill="none"/>
  <!-- V-neck trim -->
  <path d="M192,199 L210,288 L228,199" stroke="#0E8A7C" stroke-width="6" fill="none" stroke-linejoin="round" stroke-linecap="round"/>
  <!-- chest pocket (wearer left) -->
  <path d="M238,318 L272,314 L274,360 L240,364 Z" fill="#14B8A6" stroke="#0E8A7C" stroke-width="2.5" stroke-linejoin="round"/>
  <path d="M238,318 L272,314 L272.5,322 L238.5,326 Z" fill="#0E8A7C" opacity="0.6"/>

  <!-- ================= BACK HAIR ================= -->
  <path d="M210,38 C178,38 158,62 159,96 C159,124 167,142 178,150 L242,150 C253,142 261,124 261,96 C262,62 242,38 210,38 Z" fill="#5C3A20"/>

  <!-- ================= EARS ================= -->
  <path d="M174,110 C165,105 160,114 164,126 C167,136 174,139 177,132 Z" fill="#F2C6A0"/>
  <path d="M168,116 C167,122 169,128 172,130" stroke="#DBA57E" stroke-width="2" fill="none" stroke-linecap="round"/>
  <path d="M246,110 C255,105 260,114 256,126 C253,136 246,139 243,132 Z" fill="#F2C6A0"/>
  <path d="M252,116 C253,122 251,128 248,130" stroke="#DBA57E" stroke-width="2" fill="none" stroke-linecap="round"/>

  <!-- ================= FACE ================= -->
  <path d="M172,106 C172,76 188,58 210,57 C232,58 248,76 248,106
           C248,128 243,143 232,154 C226,160 218,164 210,164
           C202,164 194,160 188,154 C177,143 172,128 172,106 Z" fill="#F2C6A0"/>
  <!-- right-side face shadow -->
  <path d="M248,106 C248,128 243,143 232,154 C240,139 243,123 242,106 C242,88 236,72 226,64 C240,71 248,87 248,106 Z" fill="#DBA57E"/>
  <!-- fringe cast shadows -->
  <g fill="#DBA57E" opacity="0.4">
    <path d="M181,98 L187,98 L184,109 Z"/>
    <path d="M196,92 L202,92 L199,103 Z"/>
    <path d="M213,90 L219,90 L216,101 Z"/>
    <path d="M229,94 L235,94 L232,105 Z"/>
  </g>

  <!-- eyebrows -->
  <path d="M173,104 C180,96 193,94 203,98 L201,104 C193,100 182,101 176,108 Z" fill="#5E3A1E"/>
  <path d="M247,104 C240,96 227,94 217,98 L219,104 C227,100 238,101 244,108 Z" fill="#5E3A1E"/>

  <!-- left eye -->
  <path d="M178,120 C180,113 196,111 202,117 C204,126 202,134 197,137 C189,139 181,136 179,130 Z" fill="#FFFFFF"/>
  <path d="M179,121 C182,115 196,113 201,118 C196,116 184,117 179,125 Z" fill="#DCE1EC"/>
  <ellipse cx="191" cy="126" rx="9" ry="11" fill="url(#cirIrisG)"/>
  <ellipse cx="191" cy="127.5" rx="3.6" ry="4.6" fill="#2A1608"/>
  <circle cx="187.5" cy="120.5" r="3.2" fill="#FFFFFF"/>
  <circle cx="195.5" cy="131" r="1.6" fill="#FFFFFF" opacity="0.85"/>
  <path d="M172,117 C176,108 194,105 204,112 C206,114 206,118 204,120 C196,111 181,111 176,121 Z" fill="#4A2E1C"/>
  <path d="M181,137 C187,140 195,140 200,137" stroke="#C99A72" stroke-width="1.8" fill="none" stroke-linecap="round"/>

  <!-- right eye -->
  <path d="M242,120 C240,113 224,111 218,117 C216,126 218,134 223,137 C231,139 239,136 241,130 Z" fill="#FFFFFF"/>
  <path d="M241,121 C238,115 224,113 219,118 C224,116 236,117 241,125 Z" fill="#DCE1EC"/>
  <ellipse cx="229" cy="126" rx="9" ry="11" fill="url(#cirIrisG)"/>
  <ellipse cx="229" cy="127.5" rx="3.6" ry="4.6" fill="#2A1608"/>
  <circle cx="225.5" cy="120.5" r="3.2" fill="#FFFFFF"/>
  <circle cx="233.5" cy="131" r="1.6" fill="#FFFFFF" opacity="0.85"/>
  <path d="M248,117 C244,108 226,105 216,112 C214,114 214,118 216,120 C224,111 239,111 244,121 Z" fill="#4A2E1C"/>
  <path d="M219,137 C225,140 233,140 239,137" stroke="#C99A72" stroke-width="1.8" fill="none" stroke-linecap="round"/>

  <!-- nose -->
  <path d="M212,132 C215,136 215,140 211,142 C213,139 213,136 210,134 Z" fill="#DBA57E"/>
  <!-- cheerful open grin -->
  <path d="M194,146 C199,159 221,159 226,146 C219,151 201,151 194,146 Z" fill="#9C4A3E"/>
  <path d="M197,147 C202,152 218,152 223,147 C217,149.5 203,149.5 197,147 Z" fill="#FFFFFF"/>
  <path d="M192,144 C193,146 194,147 196,148" stroke="#DBA57E" stroke-width="1.6" fill="none" stroke-linecap="round"/>
  <path d="M228,144 C227,146 226,147 224,148" stroke="#DBA57E" stroke-width="1.6" fill="none" stroke-linecap="round"/>
  <!-- subtle blush -->
  <ellipse cx="183" cy="139" rx="7" ry="3.5" fill="#EFAF87" opacity="0.45"/>
  <ellipse cx="237" cy="139" rx="7" ry="3.5" fill="#EFAF87" opacity="0.45"/>

  <!-- ================= FRONT HAIR ================= -->
  <!-- under-layer (darker tips peeking below fringe) -->
  <g fill="#6B4224">
    <path d="M166,96 L174,96 L169,118 Z"/>
    <path d="M181,100 L188,100 L184,116 Z"/>
    <path d="M196,94 L203,94 L199,110 Z"/>
    <path d="M213,92 L220,92 L216,108 Z"/>
    <path d="M229,96 L236,96 L232,112 Z"/>
    <path d="M246,96 L254,96 L251,116 Z"/>
  </g>
  <!-- main fringe + crown -->
  <path d="M171,114 Q168,102 176,96 Q182,98 184,106 Q187,92 191,86 Q196,90 199,100
           Q202,88 207,84 Q212,90 216,98 Q219,88 223,86 Q228,92 232,102
           Q235,94 239,90 Q245,102 247,112
           C252,104 254,98 252,90 C260,80 262,64 252,52 C238,38 224,34 210,34
           C196,34 182,38 168,52 C158,64 160,80 168,90 C166,100 168,108 171,114 Z" fill="url(#cirHairG)"/>
  <!-- top flicks -->
  <path d="M196,42 C192,32 186,26 178,25 C186,32 190,38 192,46 Z" fill="#8A5A32"/>
  <path d="M222,40 C226,29 234,24 242,25 C234,30 229,36 227,46 Z" fill="#8A5A32"/>
  <path d="M210,37 C210,27 215,21 223,18 C217,26 215,32 215,39 Z" fill="#8A5A32"/>
  <!-- highlight zigzag band -->
  <path d="M170,80 L179,61 L187,73 L197,55 L206,69 L216,53 L225,69 L235,57 L244,73 L252,64
           L254,73 L245,83 L235,69 L226,81 L216,65 L207,81 L197,67 L188,85 L179,73 L172,90 Z"
        fill="#C08B52" opacity="0.9"/>
  <!-- strand lines -->
  <path d="M190,64 C192,74 193,82 192,90" stroke="#6B4224" stroke-width="2" fill="none" opacity="0.7" stroke-linecap="round"/>
  <path d="M228,62 C229,72 230,80 231,88" stroke="#6B4224" stroke-width="2" fill="none" opacity="0.7" stroke-linecap="round"/>
  <path d="M209,58 C209,68 210,76 211,84" stroke="#6B4224" stroke-width="2" fill="none" opacity="0.55" stroke-linecap="round"/>

  <!-- ================= LANYARD + ID BADGE ================= -->
  <path d="M198,204 C190,240 183,280 182,318" stroke="#24357A" stroke-width="5.5" fill="none" stroke-linecap="round"/>
  <path d="M222,204 C214,246 196,286 187,318" stroke="#24357A" stroke-width="5.5" fill="none" stroke-linecap="round"/>
  <g transform="rotate(-6 184 348)">
    <rect x="178" y="314" width="12" height="10" rx="2" fill="#8E98A3"/>
    <rect x="164" y="322" width="40" height="50" rx="4" fill="#FFFFFF" stroke="#C9D2D8" stroke-width="1.5"/>
    <path d="M164,326 C164,323.8 165.8,322 168,322 L200,322 C202.2,322 204,323.8 204,326 L204,333 L164,333 Z" fill="#24357A"/>
    <rect x="170" y="338" width="14" height="16" fill="#E8CBA8" stroke="#C9D2D8" stroke-width="1"/>
    <rect x="188" y="340" width="12" height="3" rx="1.5" fill="#C6CBD3"/>
    <rect x="188" y="346" width="10" height="3" rx="1.5" fill="#C6CBD3"/>
    <rect x="170" y="360" width="30" height="3.5" rx="1.75" fill="#14B8A6" opacity="0.85"/>
  </g>

  <!-- ================= LEFT ARM (viewer left) ================= -->
  <!-- sleeve -->
  <path d="M128,218 C110,234 100,260 101,292 L141,300 C140,268 142,240 152,220 Z" fill="url(#cirTealG)"/>
  <path d="M136,238 C132,258 132,278 140,299 L141,300 C142,272 143,248 149,226 Z" fill="#0E8A7C"/>
  <path d="M101,292 L141,300 L140,287 L103,280 Z" fill="#0E8A7C"/>
  <!-- white tee sleeve peek -->
  <path d="M100,292 L141,300 L139,313 L102,306 Z" fill="#FFFFFF"/>
  <path d="M102,306 L139,313 L138.5,316 L102.5,309 Z" fill="#DFE4EA"/>
  <!-- muscular arm -->
  <path d="M102,304 C96,330 94,348 99,362 C106,398 114,428 124,454 L146,449
           C139,420 136,396 135,372 C140,342 141,322 140,311 Z" fill="#F2C6A0"/>
  <path d="M136,314 C137,344 138,390 146,448 L139,450 C131,400 130,350 129,318 Z" fill="#DBA57E"/>
  <path d="M104,332 C100,349 102,364 108,384 C104,362 104,344 109,331 Z" fill="#DBA57E"/>
  <path d="M122,374 C126,398 130,420 136,442" stroke="#DBA57E" stroke-width="2.4" fill="none" opacity="0.8" stroke-linecap="round"/>
  <!-- glove fist -->
  <path d="M115,455 C109,472 108,492 116,506 C124,518 150,518 158,506 C165,492 163,470 155,453 C141,446 126,447 115,455 Z" fill="#FFFFFF"/>
  <path d="M155,453 C162,470 164,492 158,506 C154,512 146,516 136,516 C146,513 153,506 155,496 C159,482 158,466 151,454 Z" fill="#D8DDE3"/>
  <path d="M128,478 C127,490 127,500 129,510 M139,480 C138,492 138,502 140,512 M150,480 C149,492 149,501 150,509" stroke="#C4CDD6" stroke-width="2" fill="none" stroke-linecap="round"/>
  <path d="M148,462 C156,468 158,480 153,492" stroke="#C4CDD6" stroke-width="2" fill="none" stroke-linecap="round"/>
  <path d="M113,449 C112,455 113,460 115,464 L158,460 C159,454 158,449 156,445 Z" fill="#E7ECF1"/>
  <path d="M115,464 L158,460 L157.6,457 L115.5,461 Z" fill="#C4CDD6"/>

  <!-- ================= RIGHT ARM (viewer right) ================= -->
  <!-- sleeve -->
  <path d="M292,218 C310,234 320,260 319,292 L279,300 C280,268 278,240 268,220 Z" fill="url(#cirTealG)"/>
  <path d="M284,238 C288,258 288,278 280,299 L279,300 C278,272 277,248 271,226 Z" fill="#0E8A7C"/>
  <path d="M319,292 L279,300 L280,287 L317,280 Z" fill="#0E8A7C"/>
  <!-- white tee sleeve peek -->
  <path d="M320,292 L279,300 L281,313 L318,306 Z" fill="#FFFFFF"/>
  <path d="M318,306 L281,313 L281.5,316 L317.5,309 Z" fill="#DFE4EA"/>
  <!-- muscular arm -->
  <path d="M318,304 C324,330 326,348 321,362 C314,398 306,428 296,454 L274,449
           C281,420 284,396 285,372 C280,342 279,322 280,311 Z" fill="#F2C6A0"/>
  <path d="M318,304 C324,330 326,348 321,362 C314,398 306,428 296,454 L290,452 C300,424 308,394 312,362 C316,348 315,328 310,308 Z" fill="#DBA57E"/>
  <path d="M284,314 C283,344 282,390 274,448 L281,450 C289,400 290,350 291,318 Z" fill="#DBA57E" opacity="0.65"/>
  <path d="M298,374 C294,398 290,420 284,442" stroke="#DBA57E" stroke-width="2.4" fill="none" opacity="0.8" stroke-linecap="round"/>
  <!-- glove fist -->
  <path d="M305,455 C311,472 312,492 304,506 C296,518 270,518 262,506 C255,492 257,470 265,453 C279,446 294,447 305,455 Z" fill="#FFFFFF"/>
  <path d="M304,455 C311,470 312,492 304,506 C300,512 292,516 283,516 C293,513 300,506 302,496 C306,482 305,466 298,455 Z" fill="#D8DDE3"/>
  <path d="M292,478 C293,490 293,500 291,510 M281,480 C282,492 282,502 280,512 M270,480 C271,492 271,501 270,509" stroke="#C4CDD6" stroke-width="2" fill="none" stroke-linecap="round"/>
  <path d="M272,462 C264,468 262,480 267,492" stroke="#C4CDD6" stroke-width="2" fill="none" stroke-linecap="round"/>
  <path d="M307,449 C308,455 307,460 305,464 L262,460 C261,454 262,449 264,445 Z" fill="#E7ECF1"/>
  <path d="M305,464 L262,460 L262.4,457 L304.5,461 Z" fill="#C4CDD6"/>
</svg>
